<svg xmlns="http://www.w3.org/2000/svg" xmlns:xlink="http://www.w3.org/1999/xlink" width="1920" zoomAndPan="magnify" viewBox="0 0 1440 359.999987" height="480" preserveAspectRatio="xMidYMid meet" version="1.0"><defs><g/><clipPath id="dd3318ef01"><path d="M 0.800781 0 L 780 0 L 780 360 L 0.800781 360 Z M 0.800781 0 " clip-rule="nonzero"/></clipPath><clipPath id="7983fc901a"><rect x="0" width="780" y="0" height="360"/></clipPath><clipPath id="7549b30482"><rect x="0" width="449" y="0" height="360"/></clipPath><clipPath id="a2659fe204"><path d="M 1245 22 L 1411.519531 22 L 1411.519531 360 L 1245 360 Z M 1245 22 " clip-rule="nonzero"/></clipPath><clipPath id="060c7b4750"><rect x="0" width="167" y="0" height="338"/></clipPath><clipPath id="59e90c175b"><rect x="0" width="1412" y="0" height="360"/></clipPath></defs><g transform="matrix(1, 0, 0, 1, 10, 0)"><g clip-path="url(#59e90c175b)"><g clip-path="url(#dd3318ef01)"><g><g clip-path="url(#7983fc901a)"><g fill="#ffffff" fill-opacity="1"><g transform="translate(5.45172, 276.067249)"><g><path d="M 215.546875 -10.03125 C 216.148438 -8.8125 216.453125 -7.492188 216.453125 -6.078125 C 216.453125 -4.660156 215.789062 -3.289062 214.46875 -1.96875 C 213.15625 -0.65625 211.585938 0 209.765625 0 L 147.453125 0 C 141.160156 0 136.800781 -2.734375 134.375 -8.203125 L 108.234375 -66.28125 L 95.765625 -66.28125 L 95.765625 -8.203125 C 95.765625 -5.972656 94.953125 -4.046875 93.328125 -2.421875 C 91.710938 -0.804688 89.789062 0 87.5625 0 L 27.96875 0 C 25.738281 0 23.8125 -0.804688 22.1875 -2.421875 C 20.570312 -4.046875 19.765625 -5.972656 19.765625 -8.203125 L 19.765625 -204.609375 C 19.765625 -206.835938 20.570312 -208.757812 22.1875 -210.375 C 23.8125 -212 25.738281 -212.8125 27.96875 -212.8125 L 117.953125 -212.8125 C 147.140625 -212.8125 169.941406 -206.273438 186.359375 -193.203125 C 202.773438 -180.128906 210.984375 -161.378906 210.984375 -136.953125 C 210.984375 -112.535156 200.039062 -93.332031 178.15625 -79.34375 Z M 95.765625 -156.265625 L 95.765625 -124.03125 L 117.953125 -124.03125 C 122.410156 -124.03125 125.851562 -125.5 128.28125 -128.4375 C 130.71875 -131.382812 131.9375 -135.085938 131.9375 -139.546875 C 131.9375 -144.003906 130.769531 -147.90625 128.4375 -151.25 C 126.113281 -154.59375 122.617188 -156.265625 117.953125 -156.265625 Z M 95.765625 -156.265625 "/></g></g></g><g fill="#ffffff" fill-opacity="1"><g transform="translate(208.510789, 276.067249)"><g><path d="M 92.71875 -59.28125 L 186.359375 -59.28125 C 188.585938 -59.28125 190.507812 -58.46875 192.125 -56.84375 C 193.75 -55.226562 194.5625 -53.304688 194.5625 -51.078125 L 194.5625 -8.203125 C 194.5625 -5.972656 193.75 -4.046875 192.125 -2.421875 C 190.507812 -0.804688 188.585938 0 186.359375 0 L 27.96875 0 C 25.738281 0 23.8125 -0.804688 22.1875 -2.421875 C 20.570312 -4.046875 19.765625 -5.972656 19.765625 -8.203125 L 19.765625 -204.609375 C 19.765625 -206.835938 20.570312 -208.757812 22.1875 -210.375 C 23.8125 -212 25.738281 -212.8125 27.96875 -212.8125 L 183.921875 -212.8125 C 186.160156 -212.8125 188.085938 -212 189.703125 -210.375 C 191.328125 -208.757812 192.140625 -206.835938 192.140625 -204.609375 L 192.140625 -161.734375 C 192.140625 -159.503906 191.328125 -157.578125 189.703125 -155.953125 C 188.085938 -154.335938 186.160156 -153.53125 183.921875 -153.53125 L 92.71875 -153.53125 L 92.71875 -134.375 L 177.234375 -134.375 C 179.460938 -134.375 181.390625 -133.5625 183.015625 -131.9375 C 184.640625 -130.320312 185.453125 -128.398438 185.453125 -126.171875 L 185.453125 -86.640625 C 185.453125 -84.410156 184.640625 -82.484375 183.015625 -80.859375 C 181.390625 -79.242188 179.460938 -78.4375 177.234375 -78.4375 L 92.71875 -78.4375 Z M 92.71875 -59.28125 "/></g></g></g><g fill="#ffffff" fill-opacity="1"><g transform="translate(397.282414, 276.067249)"><g><path d="M 92.71875 -59.28125 L 186.359375 -59.28125 C 188.585938 -59.28125 190.507812 -58.46875 192.125 -56.84375 C 193.75 -55.226562 194.5625 -53.304688 194.5625 -51.078125 L 194.5625 -8.203125 C 194.5625 -5.972656 193.75 -4.046875 192.125 -2.421875 C 190.507812 -0.804688 188.585938 0 186.359375 0 L 27.96875 0 C 25.738281 0 23.8125 -0.804688 22.1875 -2.421875 C 20.570312 -4.046875 19.765625 -5.972656 19.765625 -8.203125 L 19.765625 -204.609375 C 19.765625 -206.835938 20.570312 -208.757812 22.1875 -210.375 C 23.8125 -212 25.738281 -212.8125 27.96875 -212.8125 L 183.921875 -212.8125 C 186.160156 -212.8125 188.085938 -212 189.703125 -210.375 C 191.328125 -208.757812 192.140625 -206.835938 192.140625 -204.609375 L 192.140625 -161.734375 C 192.140625 -159.503906 191.328125 -157.578125 189.703125 -155.953125 C 188.085938 -154.335938 186.160156 -153.53125 183.921875 -153.53125 L 92.71875 -153.53125 L 92.71875 -134.375 L 177.234375 -134.375 C 179.460938 -134.375 181.390625 -133.5625 183.015625 -131.9375 C 184.640625 -130.320312 185.453125 -128.398438 185.453125 -126.171875 L 185.453125 -86.640625 C 185.453125 -84.410156 184.640625 -82.484375 183.015625 -80.859375 C 181.390625 -79.242188 179.460938 -78.4375 177.234375 -78.4375 L 92.71875 -78.4375 Z M 92.71875 -59.28125 "/></g></g></g><g fill="#ffffff" fill-opacity="1"><g transform="translate(586.05404, 276.067249)"><g><path d="M 96.984375 -62.328125 L 181.1875 -62.328125 C 183.414062 -62.328125 185.34375 -61.515625 186.96875 -59.890625 C 188.59375 -58.265625 189.40625 -56.335938 189.40625 -54.109375 L 189.40625 -8.203125 C 189.40625 -5.972656 188.59375 -4.046875 186.96875 -2.421875 C 185.34375 -0.804688 183.414062 0 181.1875 0 L 27.96875 0 C 25.738281 0 23.8125 -0.804688 22.1875 -2.421875 C 20.570312 -4.046875 19.765625 -5.972656 19.765625 -8.203125 L 19.765625 -204.609375 C 19.765625 -206.835938 20.570312 -208.757812 22.1875 -210.375 C 23.8125 -212 25.738281 -212.8125 27.96875 -212.8125 L 88.765625 -212.8125 C 90.992188 -212.8125 92.921875 -212 94.546875 -210.375 C 96.171875 -208.757812 96.984375 -206.835938 96.984375 -204.609375 Z M 96.984375 -62.328125 "/></g></g></g></g></g></g><g transform="matrix(1, 0, 0, 1, 770, 0)"><g clip-path="url(#7549b30482)"><g fill="#ffffff" fill-opacity="1"><g transform="translate(5.185237, 276.763806)"><g><path d="M 187.28125 -95.765625 L 213.71875 -95.765625 C 216.15625 -95.765625 218.179688 -94.953125 219.796875 -93.328125 C 221.421875 -91.710938 222.234375 -89.789062 222.234375 -87.5625 L 222.234375 -42.265625 C 222.234375 -40.023438 221.421875 -38.09375 219.796875 -36.46875 C 218.179688 -34.851562 216.257812 -34.046875 214.03125 -34.046875 L 187.28125 -34.046875 L 187.28125 -8.203125 C 187.28125 -5.972656 186.46875 -4.046875 184.84375 -2.421875 C 183.21875 -0.804688 181.289062 0 179.0625 0 L 122.515625 0 C 120.285156 0 118.359375 -0.804688 116.734375 -2.421875 C 115.117188 -4.046875 114.3125 -5.972656 114.3125 -8.203125 L 114.3125 -34.046875 L 23.40625 -34.046875 C 21.175781 -34.046875 19.25 -34.851562 17.625 -36.46875 C 16.007812 -38.09375 15.203125 -40.023438 15.203125 -42.265625 L 15.203125 -85.734375 C 15.203125 -89.179688 16.316406 -92.320312 18.546875 -95.15625 L 104.578125 -207.640625 C 107.421875 -211.085938 111.171875 -212.8125 115.828125 -212.8125 L 179.0625 -212.8125 C 181.289062 -212.8125 183.21875 -212 184.84375 -210.375 C 186.46875 -208.757812 187.28125 -206.835938 187.28125 -204.609375 Z M 116.4375 -92.421875 L 116.4375 -136.203125 L 84.515625 -92.421875 Z M 116.4375 -92.421875 "/></g></g></g><g fill="#ffffff" fill-opacity="1"><g transform="translate(226.788943, 276.763806)"><g><path d="M 24.328125 -152.765625 C 24.328125 -170.503906 31.519531 -185.453125 45.90625 -197.609375 C 60.289062 -209.765625 82.835938 -215.84375 113.546875 -215.84375 C 144.253906 -215.84375 166.703125 -209.8125 180.890625 -197.75 C 195.078125 -185.695312 202.171875 -170.800781 202.171875 -153.0625 C 202.171875 -135.332031 196.191406 -121.804688 184.234375 -112.484375 C 192.546875 -108.429688 199.132812 -102.148438 204 -93.640625 C 208.863281 -85.128906 211.296875 -76.109375 211.296875 -66.578125 C 211.296875 -57.054688 209.46875 -48.34375 205.8125 -40.4375 C 202.164062 -32.53125 196.644531 -25.234375 189.25 -18.546875 C 181.851562 -11.859375 171.664062 -6.585938 158.6875 -2.734375 C 145.71875 1.117188 130.722656 3.046875 113.703125 3.046875 C 80.660156 3.046875 56.234375 -3.640625 40.421875 -17.015625 C 24.617188 -30.398438 16.71875 -46.820312 16.71875 -66.28125 C 16.71875 -76.007812 19.148438 -85.023438 24.015625 -93.328125 C 28.878906 -101.640625 35.265625 -108.023438 43.171875 -112.484375 C 30.609375 -121.609375 24.328125 -135.035156 24.328125 -152.765625 Z M 129.046875 -52.890625 C 133.003906 -56.140625 134.984375 -60.5 134.984375 -65.96875 C 134.984375 -71.445312 133.003906 -75.804688 129.046875 -79.046875 C 125.097656 -82.285156 119.984375 -83.90625 113.703125 -83.90625 C 107.421875 -83.90625 102.300781 -82.285156 98.34375 -79.046875 C 94.394531 -75.804688 92.421875 -71.445312 92.421875 -65.96875 C 92.421875 -60.5 94.394531 -56.140625 98.34375 -52.890625 C 102.300781 -49.648438 107.421875 -48.03125 113.703125 -48.03125 C 119.984375 -48.03125 125.097656 -49.648438 129.046875 -52.890625 Z M 127.828125 -136.34375 C 131.378906 -139.488281 133.15625 -143.390625 133.15625 -148.046875 C 133.15625 -152.710938 131.378906 -156.613281 127.828125 -159.75 C 124.285156 -162.894531 119.578125 -164.46875 113.703125 -164.46875 C 107.828125 -164.46875 103.164062 -162.894531 99.71875 -159.75 C 96.269531 -156.613281 94.546875 -152.710938 94.546875 -148.046875 C 94.546875 -143.390625 96.269531 -139.488281 99.71875 -136.34375 C 103.164062 -133.207031 107.828125 -131.640625 113.703125 -131.640625 C 119.578125 -131.640625 124.285156 -133.207031 127.828125 -136.34375 Z M 127.828125 -136.34375 "/></g></g></g></g></g><g clip-path="url(#a2659fe204)"><g transform="matrix(1, 0, 0, 1, 1245, 22)"><g clip-path="url(#060c7b4750)"><g fill="#ffffff" fill-opacity="1"><g transform="translate(0.73735, 248.904014)"><g><path d="M 57.625 -26.90625 L 57.625 -70.671875 L 15.5 -70.671875 C 13.5 -70.671875 11.773438 -71.394531 10.328125 -72.84375 C 8.878906 -74.300781 8.15625 -76.023438 8.15625 -78.015625 L 8.15625 -107.640625 C 8.15625 -109.640625 8.878906 -111.363281 10.328125 -112.8125 C 11.773438 -114.257812 13.5 -114.984375 15.5 -114.984375 L 57.625 -114.984375 L 57.625 -157.390625 C 57.625 -159.378906 58.347656 -161.097656 59.796875 -162.546875 C 61.253906 -164.003906 62.976562 -164.734375 64.96875 -164.734375 L 98.125 -164.734375 C 100.125 -164.734375 101.847656 -164.003906 103.296875 -162.546875 C 104.742188 -161.097656 105.46875 -159.378906 105.46875 -157.390625 L 105.46875 -114.984375 L 147.0625 -114.984375 C 149.050781 -114.984375 150.769531 -114.257812 152.21875 -112.8125 C 153.664062 -111.363281 154.390625 -109.640625 154.390625 -107.640625 L 154.390625 -78.015625 C 154.390625 -76.023438 153.664062 -74.300781 152.21875 -72.84375 C 150.769531 -71.394531 149.050781 -70.671875 147.0625 -70.671875 L 105.46875 -70.671875 L 105.46875 -26.90625 C 105.46875 -24.914062 104.742188 -23.195312 103.296875 -21.75 C 101.847656 -20.300781 100.125 -19.578125 98.125 -19.578125 L 64.96875 -19.578125 C 62.976562 -19.578125 61.253906 -20.300781 59.796875 -21.75 C 58.347656 -23.195312 57.625 -24.914062 57.625 -26.90625 Z M 57.625 -26.90625 "/></g></g></g></g></g></g></g></g></svg>